# Blender v2.64 (sub 0) OBJ File: 'scene_registration.blend'
# www.blender.org
mtllib spatula.mtl
o spatoula.001
v 0.292950 -0.246734 5.866180
v 0.277280 -0.246734 5.837990
v 1.331850 -0.246734 5.640150
v 1.032090 -0.246729 -2.178590
v 1.107770 -0.246730 -0.204210
v 1.142740 -0.246731 1.953960
v 1.229030 -0.246732 3.771800
v 0.259270 -0.246734 5.811230
v 0.216790 -0.246734 5.762760
v 1.020790 -0.246726 -5.863710
v 0.996410 -0.246727 -5.452660
v 0.049800 -0.246734 5.669010
v 0.976650 -0.246727 -4.082440
v 1.318410 -0.246725 -7.845060
v 1.162450 -0.246725 -7.080300
v -2.749550 -0.246716 -21.604979
v -2.555570 -0.246723 -11.501230
v -2.806250 -0.246722 -12.967779
v -2.970720 -0.246721 -14.438810
v 0.324580 -0.246734 6.117380
v 1.340950 -0.246734 6.067040
v 0.305580 -0.246734 6.178970
v 1.337240 -0.246734 6.706490
v 0.276440 -0.246734 6.236460
v 1.327370 -0.246735 7.049130
v 0.238010 -0.246734 6.288200
v 1.297220 -0.246735 7.287710
v 0.191390 -0.246734 6.332700
v 0.332900 -0.246734 6.053480
v 0.330310 -0.246734 5.989070
v 0.316860 -0.246734 5.926040
v 0.110530 -0.246734 5.690610
v 0.166730 -0.246734 5.722160
v 2.489790 -0.246722 -13.268850
v 2.266500 -0.246722 -11.983850
v -1.182440 -0.246727 -4.110360
v -0.078150 -0.246734 5.657850
v -1.280510 -0.246729 -1.992170
v -0.141700 -0.246734 5.668610
v -1.409240 -0.246731 1.973030
v 1.902350 -0.246724 -9.989220
v 2.092680 -0.246723 -10.856590
v -3.059060 -0.246720 -15.910681
v -1.373210 -0.246726 -6.824310
v -3.078130 -0.246719 -17.535440
v 2.630680 -0.246721 -14.475890
v 2.691440 -0.246720 -15.642910
v 2.736710 -0.246719 -17.079220
v 2.454420 -0.246717 -20.925251
v 2.730510 -0.246718 -18.502529
v 2.586860 -0.246717 -20.424339
v 2.663890 -0.246717 -19.785860
v -2.319820 -0.246723 -10.474451
v -1.989820 -0.246724 -9.358789
v -1.546220 -0.246725 -7.585390
v -0.202510 -0.246734 5.689950
v -0.258850 -0.246734 5.721270
v -1.479740 -0.246733 5.137860
v -0.309080 -0.246734 5.761650
v -0.351760 -0.246734 5.809950
v 0.254200 -0.246735 8.441820
v 0.067490 -0.246735 8.480021
v 0.016720 -0.246734 6.411220
v -0.047510 -0.246734 6.416540
v -0.385660 -0.246734 5.864760
v -0.409830 -0.246734 5.924520
v -1.477880 -0.246734 6.375890
v -0.423540 -0.246734 5.987490
v -0.426410 -0.246734 6.051880
v 0.137910 -0.246734 6.368680
v 0.849370 -0.246735 8.089220
v 0.079120 -0.246734 6.395110
v 0.652210 -0.246735 8.250420
v 0.443650 -0.246735 8.371010
v 1.218650 -0.246735 7.540710
v 1.105840 -0.246735 7.772810
v 0.999520 -0.246735 7.928220
v -0.174060 -0.246734 6.394580
v -1.006680 -0.246735 8.082380
v -0.232730 -0.246734 6.367910
v -1.167940 -0.246735 7.876250
v -0.286060 -0.246734 6.331700
v -1.168390 -0.246727 -4.798250
v -1.218170 -0.246727 -5.326360
v -1.280760 -0.246726 -6.031380
v -0.013690 -0.246734 5.657990
v -2.857280 -0.246717 -20.679941
v -3.008670 -0.246718 -19.137850
v -0.418360 -0.246734 6.115830
v -0.399610 -0.246734 6.177490
v -1.435620 -0.246735 7.077800
v -0.111720 -0.246734 6.410950
v -0.728950 -0.246735 8.303580
v -0.873560 -0.246735 8.206520
v -0.105340 -0.246735 8.487989
v -0.287290 -0.246735 8.466619
v -0.506550 -0.246735 8.404460
v -0.370720 -0.246734 6.235110
v -0.332500 -0.246734 6.287000
v -1.376260 -0.246735 7.418660
v -1.300740 -0.246735 7.636880
v -0.202510 0.126266 5.689950
v -0.141700 0.126266 5.668610
v -1.409240 0.126269 1.973030
v 0.996410 0.126273 -5.452660
v 1.020790 0.126274 -5.863710
v -0.013690 0.126266 5.657990
v 0.976650 0.126273 -4.082440
v 0.049800 0.126266 5.669010
v 0.110530 0.126266 5.690610
v 1.229030 0.126268 3.771800
v 0.166730 0.126266 5.722160
v -1.280760 0.126274 -6.031380
v -1.218170 0.126273 -5.326360
v -1.168390 0.126273 -4.798250
v -1.167940 0.126265 7.876250
v -1.006680 0.126265 8.082380
v -0.232730 0.126266 6.367910
v -0.174060 0.126266 6.394580
v -1.280510 0.126271 -1.992170
v -1.182440 0.126273 -4.110360
v -0.078150 0.126266 5.657850
v -0.105340 0.126265 8.487989
v -0.047510 0.126266 6.416540
v -0.287290 0.126265 8.466619
v -0.111720 0.126266 6.410950
v -0.873560 0.126265 8.206520
v -0.728950 0.126265 8.303580
v -0.506550 0.126265 8.404460
v -1.300740 0.126265 7.636880
v -0.286060 0.126266 6.331700
v -1.376260 0.126265 7.418660
v -0.332500 0.126266 6.287000
v -1.435620 0.126265 7.077800
v -0.370720 0.126266 6.235110
v -1.477880 0.126266 6.375890
v -0.399610 0.126266 6.177490
v -0.418360 0.126266 6.115830
v -0.426410 0.126266 6.051880
v -0.423540 0.126266 5.987490
v -1.479740 0.126267 5.137860
v -0.409830 0.126266 5.924520
v -0.385660 0.126266 5.864760
v -0.351760 0.126266 5.809950
v -0.309080 0.126266 5.761650
v -0.258850 0.126266 5.721270
v -1.373210 0.126274 -6.824310
v 1.162450 0.126275 -7.080300
v -1.546220 0.126275 -7.585390
v 1.318410 0.126275 -7.845060
v -1.989820 0.126276 -9.358789
v 1.142740 0.126269 1.953960
v 1.107770 0.126270 -0.204210
v 1.032090 0.126271 -2.178590
v 0.330310 0.126266 5.989070
v 1.340950 0.126266 6.067040
v 0.316860 0.126266 5.926040
v 1.331850 0.126266 5.640150
v 0.292950 0.126266 5.866180
v 0.332900 0.126266 6.053480
v 0.324580 0.126266 6.117380
v 1.337240 0.126266 6.706490
v 0.305580 0.126266 6.178970
v 1.327370 0.126265 7.049130
v 0.276440 0.126266 6.236460
v 1.297220 0.126265 7.287710
v 0.238010 0.126266 6.288200
v 1.218650 0.126265 7.540710
v 0.191390 0.126266 6.332700
v 1.105840 0.126265 7.772810
v 0.137910 0.126266 6.368680
v 0.079120 0.126266 6.395110
v 0.849370 0.126265 8.089220
v 0.999520 0.126265 7.928220
v 0.067490 0.126265 8.480021
v 0.254200 0.126265 8.441820
v 0.016720 0.126266 6.411220
v 0.443650 0.126265 8.371010
v 0.652210 0.126265 8.250420
v -2.319820 0.126277 -10.474451
v 1.902350 0.126276 -9.989220
v -2.555570 0.126277 -11.501230
v 2.092680 0.126277 -10.856590
v -2.806250 0.126278 -12.967779
v 0.216790 0.126266 5.762760
v 0.259270 0.126266 5.811230
v 0.277280 0.126266 5.837990
v 2.266500 0.126278 -11.983850
v 2.489790 0.126278 -13.268850
v -2.970720 0.126279 -14.438810
v 2.630680 0.126279 -14.475890
v -3.059060 0.126280 -15.910681
v 2.691440 0.126280 -15.642910
v -3.078130 0.126281 -17.535440
v 2.736710 0.126281 -17.079220
v 2.730510 0.126282 -18.502529
v -3.008670 0.126282 -19.137850
v 2.663890 0.126283 -19.785860
v -2.857280 0.126283 -20.679941
v 2.613760 0.126283 -20.258999
v -2.823200 0.126283 -20.969170
v 2.454420 -0.243217 -20.925251
v 2.599030 0.072523 -20.354820
v 2.584670 0.034063 -20.423880
v 2.541690 -0.081147 -20.630751
v -2.749550 -0.243216 -21.604979
v -2.823200 0.126283 -20.969170
v -2.857280 0.126283 -20.679941
v -3.008670 0.126282 -19.137850
v -3.078130 0.126281 -17.535440
v -3.059060 0.126280 -15.910681
v -2.970720 0.126279 -14.438810
v -2.806250 0.126278 -12.967779
v -2.319820 0.126277 -10.474451
v -1.989820 0.126276 -9.358789
v -1.546220 0.126275 -7.585390
v -1.373210 0.126274 -6.824310
v -1.280760 0.126274 -6.031380
v -1.218170 0.126273 -5.326360
v -1.168390 0.126273 -4.798250
v -1.182440 0.126273 -4.110360
v -1.280510 0.126271 -1.992170
v -1.409240 0.126269 1.973030
v -1.479740 0.126267 5.137860
v -1.477880 0.126266 6.375890
v -1.435620 0.126265 7.077800
v -1.376260 0.126265 7.418660
v -1.300740 0.126265 7.636880
v -1.167940 0.126265 7.876250
v -1.006680 0.126265 8.082380
v -0.873560 0.126265 8.206520
v -0.728950 0.126265 8.303580
v -0.506550 0.126265 8.404460
v -0.287290 0.126265 8.466619
v -0.105340 0.126265 8.487989
v 0.067490 0.126265 8.480021
v 0.254200 0.126265 8.441820
v 0.443650 0.126265 8.371010
v 0.652210 0.126265 8.250420
v 0.849370 0.126265 8.089220
v 0.999520 0.126265 7.928220
v 1.105840 0.126265 7.772810
v 1.218650 0.126265 7.540710
v 1.297220 0.126265 7.287710
v 1.327370 0.126265 7.049130
v 1.337240 0.126266 6.706490
v 1.340950 0.126266 6.067040
v 1.331850 0.126266 5.640150
v 1.229030 0.126268 3.771800
v 1.142740 0.126269 1.953960
v 1.107770 0.126270 -0.204210
v 1.032090 0.126271 -2.178590
v 0.976650 0.126273 -4.082440
v 0.996410 0.126273 -5.452660
v 1.020790 0.126274 -5.863710
v 1.162450 0.126275 -7.080300
v 1.318410 0.126275 -7.845060
v 1.902350 0.126276 -9.989220
v 2.092680 0.126277 -10.856590
v 2.266500 0.126278 -11.983850
v 2.489790 0.126278 -13.268850
v 2.630680 0.126279 -14.475890
v 2.691440 0.126280 -15.642910
v 2.736710 0.126281 -17.079220
v 2.730510 0.126282 -18.502529
v 2.663890 0.126283 -19.785860
v 2.613760 0.126283 -20.258999
v 0.277280 0.126266 5.837990
v 0.292950 0.126266 5.866180
v 0.259270 0.126266 5.811230
v 0.216790 0.126266 5.762760
v 0.166730 0.126266 5.722160
v 0.110530 0.126266 5.690610
v 0.049800 0.126266 5.669010
v -0.013690 0.126266 5.657990
v -0.078150 0.126266 5.657850
v -0.141700 0.126266 5.668610
v -0.202510 0.126266 5.689950
v -0.258850 0.126266 5.721270
v -0.309080 0.126266 5.761650
v -0.351760 0.126266 5.809950
v -0.385660 0.126266 5.864760
v -0.409830 0.126266 5.924520
v -0.423540 0.126266 5.987490
v -0.426410 0.126266 6.051880
v -0.418360 0.126266 6.115830
v -0.399610 0.126266 6.177490
v -0.370720 0.126266 6.235110
v -0.332500 0.126266 6.287000
v -0.286060 0.126266 6.331700
v -0.232730 0.126266 6.367910
v -0.174060 0.126266 6.394580
v -0.111720 0.126266 6.410950
v -0.047510 0.126266 6.416540
v 0.016720 0.126266 6.411220
v 0.079120 0.126266 6.395110
v 0.137910 0.126266 6.368680
v 0.191390 0.126266 6.332700
v 0.238010 0.126266 6.288200
v 0.276440 0.126266 6.236460
v 0.305580 0.126266 6.178970
v 0.324580 0.126266 6.117380
v 0.332900 0.126266 6.053480
v 0.330310 0.126266 5.989070
v 0.316860 0.126266 5.926040
v -2.823200 0.126283 -20.969170
v 2.613760 0.126283 -20.258999
vn 0.000000 -1.000000 -0.000001
vn -0.000001 -1.000000 -0.000001
vn 0.000000 -1.000000 -0.000000
vn 0.000001 -1.000000 -0.000001
vn -0.000000 1.000000 0.000001
vn 0.000003 1.000000 0.000000
vn 0.000001 1.000000 0.000001
vn -0.000000 1.000000 0.000000
vn 0.966779 0.000000 -0.255614
vn 0.983884 -0.082672 -0.158547
vn 0.992769 0.007941 -0.119774
vn 0.978167 0.007971 -0.207665
vn 0.965204 -0.055306 -0.255584
vn -0.993358 0.000000 -0.115067
vn -0.993286 0.001056 -0.115678
vn -0.993129 -0.000000 -0.117021
vn -0.995216 0.000000 -0.097702
vn -0.999062 0.000000 -0.043307
vn -0.999931 0.000000 0.011736
vn -0.998204 0.000000 0.059911
vn -0.993808 0.000000 0.111114
vn -0.985704 0.000000 0.168488
vn -0.974640 0.000000 0.223779
vn -0.958931 0.000000 0.283641
vn -0.970110 0.000000 0.242664
vn -0.975123 0.000000 0.221667
vn -0.993272 0.000000 0.115808
vn -0.996082 0.000000 0.088430
vn -0.995587 0.000000 0.093845
vn -0.999792 0.000000 -0.020421
vn -0.998930 0.000000 -0.046249
vn -0.999473 0.000000 -0.032448
vn -0.999752 0.000000 -0.022271
vn -0.999999 0.000000 0.001502
vn -0.998192 0.000000 0.060098
vn -0.985173 0.000000 0.171566
vn -0.945010 0.000000 0.327042
vn -0.874441 0.000000 0.485131
vn -0.787615 0.000000 0.616168
vn -0.682008 0.000000 0.731344
vn -0.557295 0.000000 0.830314
vn -0.413086 0.000000 0.910692
vn -0.272748 0.000000 0.962085
vn -0.116648 0.000000 0.993173
vn 0.046059 -0.000000 0.998939
vn 0.200445 -0.000000 0.979705
vn 0.350111 -0.000000 0.936708
vn 0.500554 -0.000000 0.865705
vn 0.632972 -0.000000 0.774175
vn 0.731320 -0.000000 0.682034
vn 0.825339 -0.000000 0.564637
vn 0.899393 -0.000000 0.437141
vn 0.955008 -0.000000 0.296581
vn 0.992109 -0.000000 0.125376
vn 0.999585 -0.000000 0.028794
vn 0.999983 -0.000000 0.005802
vn 0.999773 0.000000 -0.021312
vn 0.998489 0.000000 -0.054949
vn 0.998875 0.000000 -0.047415
vn 0.999869 0.000000 -0.016201
vn 0.999266 0.000000 -0.038303
vn 0.999576 0.000000 -0.029108
vn 0.999896 -0.000000 0.014420
vn 0.998246 -0.000000 0.059207
vn 0.993289 -0.000000 0.115659
vn 0.979833 -0.000000 0.199820
vn 0.964859 -0.000000 0.262769
vn 0.976761 -0.000000 0.214334
vn 0.988320 -0.000000 0.152396
vn 0.985236 -0.000000 0.171201
vn 0.993257 -0.000000 0.115936
vn 0.998647 -0.000000 0.051994
vn 0.999504 -0.000000 0.031503
vn 0.999991 0.000000 -0.004356
vn 0.998655 0.000000 -0.051842
vn 0.993565 0.000000 -0.113264
vn 0.990888 -0.084371 -0.104987
vn 0.129517 0.000000 -0.991577
vn -0.829611 0.000000 0.558342
vn -0.874041 0.000000 0.485852
vn -0.752045 0.000000 0.659112
vn -0.629906 0.000000 0.776671
vn -0.489524 0.000000 0.871990
vn -0.335104 0.000000 0.942181
vn -0.171016 0.000000 0.985268
vn -0.002175 0.000000 0.999998
vn 0.166937 0.000000 0.985968
vn 0.331136 0.000000 0.943583
vn 0.485875 0.000000 0.874028
vn 0.626552 0.000000 0.779379
vn 0.749359 0.000000 0.662164
vn 0.850474 0.000000 0.526017
vn 0.927046 0.000000 0.374947
vn 0.977109 0.000000 0.212740
vn 0.999008 0.000000 0.044528
vn 0.992170 0.000000 -0.124894
vn 0.956743 0.000000 -0.290934
vn 0.893932 0.000000 -0.448203
vn 0.805165 0.000000 -0.593051
vn 0.693482 0.000000 -0.720474
vn 0.561728 0.000000 -0.827322
vn 0.413826 0.000000 -0.910356
vn 0.253979 0.000000 -0.967210
vn 0.086737 0.000000 -0.996231
vn -0.082553 -0.000000 -0.996587
vn -0.249969 -0.000000 -0.968254
vn -0.410037 -0.000000 -0.912069
vn -0.558201 -0.000000 -0.829706
vn -0.690471 -0.000000 -0.723360
vn -0.802783 -0.000000 -0.596272
vn -0.891964 -0.000000 -0.452107
vn -0.955564 -0.000000 -0.294785
vn -0.991630 -0.000000 -0.129113
vn -0.999193 0.000000 0.040178
vn -0.977982 0.000000 0.208691
vn -0.928658 0.000000 0.370937
vn 0.064764 0.866006 -0.495822
vn 0.064758 0.866028 -0.495784
vn 0.064759 0.866026 -0.495788
vn 0.064758 0.866039 -0.495765
vn 0.064758 0.866036 -0.495771
usemtl 
s off
f 1//1 2//1 3//1
f 4//1 5//1 6//1
f 3//1 2//1 7//1
f 7//1 2//1 8//1
f 7//1 8//1 9//1
f 10//2 11//2 12//2
f 12//1 11//1 13//1
f 14//1 15//1 16//1
f 16//1 15//1 10//1
f 17//1 18//1 19//1
f 20//3 21//3 22//3
f 22//1 21//1 23//1
f 22//1 23//1 24//1
f 24//1 23//1 25//1
f 24//1 25//1 26//1
f 26//1 25//1 27//1
f 26//1 27//1 28//1
f 20//1 29//1 21//1
f 21//1 29//1 30//1
f 21//1 30//1 3//1
f 3//1 30//1 31//1
f 31//1 1//1 3//1
f 13//1 4//1 12//1
f 12//1 4//1 6//1
f 12//1 6//1 32//1
f 32//1 6//1 7//1
f 32//1 7//1 33//1
f 33//1 7//1 9//1
f 34//1 35//1 16//1
f 36//1 37//1 38//1
f 38//1 37//1 39//1
f 38//1 39//1 40//1
f 14//1 16//1 41//1
f 41//1 16//1 35//1
f 41//1 35//1 42//1
f 19//1 43//1 44//1
f 44//1 43//1 45//1
f 46//1 34//1 47//1
f 47//1 34//1 16//1
f 47//1 16//1 48//1
f 48//1 16//1 49//1
f 48//1 49//1 50//1
f 50//1 49//1 51//1
f 50//1 51//1 52//1
f 53//1 17//1 54//1
f 54//1 17//1 19//1
f 54//1 19//1 55//1
f 55//1 19//1 44//1
f 39//1 56//1 40//1
f 40//1 56//1 57//1
f 40//1 57//1 58//1
f 58//3 57//3 59//3
f 58//1 59//1 60//1
f 61//1 62//1 63//1
f 63//1 62//1 64//1
f 60//1 65//1 58//1
f 58//1 65//1 66//1
f 58//1 66//1 67//1
f 67//1 66//1 68//1
f 67//1 68//1 69//1
f 70//1 71//1 72//1
f 72//1 71//1 73//1
f 72//1 73//1 63//1
f 63//1 73//1 74//1
f 63//1 74//1 61//1
f 27//1 75//1 28//1
f 28//1 75//1 76//1
f 28//1 76//1 70//1
f 70//1 76//1 77//1
f 70//1 77//1 71//1
f 78//1 79//1 80//1
f 80//1 79//1 81//1
f 80//1 81//1 82//1
f 36//1 83//1 37//1
f 37//4 83//4 84//4
f 37//1 84//1 85//1
f 12//1 86//1 10//1
f 10//1 86//1 37//1
f 10//1 37//1 16//1
f 16//1 37//1 85//1
f 16//1 85//1 87//1
f 87//1 85//1 44//1
f 87//1 44//1 88//1
f 88//1 44//1 45//1
f 69//1 89//1 67//1
f 67//3 89//3 90//3
f 67//1 90//1 91//1
f 92//1 93//1 78//1
f 78//1 93//1 94//1
f 78//1 94//1 79//1
f 62//1 95//1 64//1
f 64//1 95//1 96//1
f 64//1 96//1 92//1
f 92//1 96//1 97//1
f 92//1 97//1 93//1
f 90//1 98//1 91//1
f 91//1 98//1 99//1
f 91//1 99//1 100//1
f 100//1 99//1 82//1
f 100//1 82//1 101//1
f 101//1 82//1 81//1
f 102//5 103//5 104//5
f 105//5 106//5 107//5
f 105//5 107//5 108//5
f 109//5 110//5 111//5
f 111//5 110//5 112//5
f 113//6 114//6 115//6
f 116//5 117//5 118//5
f 118//5 117//5 119//5
f 120//7 104//7 121//7
f 121//5 104//5 103//5
f 121//5 103//5 115//5
f 115//5 103//5 122//5
f 115//5 122//5 113//5
f 123//5 124//5 125//5
f 125//5 124//5 126//5
f 117//5 127//5 119//5
f 119//5 127//5 128//5
f 119//5 128//5 126//5
f 126//5 128//5 129//5
f 126//5 129//5 125//5
f 116//5 118//5 130//5
f 130//5 118//5 131//5
f 130//5 131//5 132//5
f 132//5 131//5 133//5
f 132//5 133//5 134//5
f 134//5 133//5 135//5
f 134//5 135//5 136//5
f 136//5 135//5 137//5
f 136//8 137//8 138//8
f 138//5 139//5 136//5
f 136//5 139//5 140//5
f 136//5 140//5 141//5
f 141//5 140//5 142//5
f 141//5 142//5 143//5
f 143//5 144//5 141//5
f 141//5 144//5 145//5
f 141//5 145//5 104//5
f 104//5 145//5 146//5
f 104//5 146//5 102//5
f 122//5 107//5 113//5
f 113//5 107//5 106//5
f 113//5 106//5 147//5
f 147//5 106//5 148//5
f 147//5 148//5 149//5
f 149//5 148//5 150//5
f 149//5 150//5 151//5
f 111//5 152//5 109//5
f 109//5 152//5 153//5
f 109//5 153//5 107//5
f 107//5 153//5 154//5
f 107//5 154//5 108//5
f 155//5 156//5 157//5
f 157//5 156//5 158//5
f 157//5 158//5 159//5
f 155//5 160//5 156//5
f 156//5 160//5 161//5
f 156//5 161//5 162//5
f 162//5 161//5 163//5
f 162//5 163//5 164//5
f 164//5 163//5 165//5
f 164//5 165//5 166//5
f 166//5 165//5 167//5
f 166//5 167//5 168//5
f 168//5 167//5 169//5
f 168//5 169//5 170//5
f 170//5 169//5 171//5
f 172//5 173//5 171//5
f 171//5 173//5 174//5
f 171//5 174//5 170//5
f 123//5 175//5 124//5
f 124//5 175//5 176//5
f 124//5 176//5 177//5
f 177//5 176//5 178//5
f 177//5 178//5 172//5
f 172//5 178//5 179//5
f 172//5 179//5 173//5
f 151//5 150//5 180//5
f 180//5 150//5 181//5
f 180//5 181//5 182//5
f 182//5 181//5 183//5
f 182//5 183//5 184//5
f 112//5 185//5 111//5
f 111//5 185//5 186//5
f 111//5 186//5 158//5
f 158//5 186//5 187//5
f 158//5 187//5 159//5
f 183//5 188//5 184//5
f 184//5 188//5 189//5
f 184//5 189//5 190//5
f 190//5 189//5 191//5
f 190//5 191//5 192//5
f 192//5 191//5 193//5
f 192//5 193//5 194//5
f 193//5 195//5 194//5
f 194//5 195//5 196//5
f 194//5 196//5 197//5
f 197//5 196//5 198//5
f 197//5 198//5 199//5
f 199//5 198//5 200//5
f 199//5 200//5 201//5
f 51//9 49//9 202//9
f 203//10 52//10 204//10
f 204//11 52//11 51//11
f 204//12 51//12 205//12
f 205//13 51//13 202//13
f 206//14 16//14 207//14
f 207//15 16//15 87//15
f 207//16 87//16 208//16
f 208//17 87//17 88//17
f 208//17 88//17 209//17
f 209//18 88//18 45//18
f 209//18 45//18 210//18
f 210//19 45//19 43//19
f 210//19 43//19 211//19
f 211//20 43//20 19//20
f 211//20 19//20 212//20
f 212//21 19//21 18//21
f 212//21 18//21 213//21
f 213//22 18//22 17//22
f 213//22 17//22 182//22
f 182//23 17//23 53//23
f 182//23 53//23 214//23
f 214//24 53//24 54//24
f 214//24 54//24 215//24
f 215//25 54//25 55//25
f 215//25 55//25 216//25
f 216//26 55//26 44//26
f 216//26 44//26 217//26
f 217//27 44//27 85//27
f 217//27 85//27 218//27
f 218//28 85//28 84//28
f 218//28 84//28 219//28
f 219//29 84//29 83//29
f 219//29 83//29 220//29
f 220//30 83//30 36//30
f 220//30 36//30 221//30
f 221//31 36//31 38//31
f 221//31 38//31 222//31
f 222//32 38//32 40//32
f 222//32 40//32 223//32
f 223//33 40//33 58//33
f 223//33 58//33 224//33
f 224//34 58//34 67//34
f 224//34 67//34 225//34
f 225//35 67//35 91//35
f 225//35 91//35 226//35
f 226//36 91//36 100//36
f 226//36 100//36 227//36
f 227//37 100//37 101//37
f 227//37 101//37 228//37
f 228//38 101//38 81//38
f 228//38 81//38 229//38
f 229//39 81//39 79//39
f 229//39 79//39 230//39
f 230//40 79//40 94//40
f 230//40 94//40 231//40
f 231//41 94//41 93//41
f 231//41 93//41 232//41
f 232//42 93//42 97//42
f 232//42 97//42 233//42
f 233//43 97//43 96//43
f 233//43 96//43 234//43
f 234//44 96//44 95//44
f 234//44 95//44 235//44
f 235//45 95//45 62//45
f 235//45 62//45 236//45
f 236//46 62//46 61//46
f 236//46 61//46 237//46
f 237//47 61//47 74//47
f 237//47 74//47 238//47
f 238//48 74//48 73//48
f 238//48 73//48 239//48
f 239//49 73//49 71//49
f 239//49 71//49 240//49
f 240//50 71//50 77//50
f 240//50 77//50 241//50
f 241//51 77//51 76//51
f 241//51 76//51 242//51
f 242//52 76//52 75//52
f 242//52 75//52 243//52
f 243//53 75//53 27//53
f 243//53 27//53 244//53
f 244//54 27//54 25//54
f 244//54 25//54 245//54
f 245//55 25//55 23//55
f 245//55 23//55 246//55
f 246//56 23//56 21//56
f 246//56 21//56 247//56
f 247//57 21//57 3//57
f 247//57 3//57 248//57
f 248//58 3//58 7//58
f 248//58 7//58 249//58
f 249//59 7//59 6//59
f 249//59 6//59 250//59
f 250//60 6//60 5//60
f 250//60 5//60 251//60
f 251//61 5//61 4//61
f 251//61 4//61 252//61
f 252//62 4//62 13//62
f 252//62 13//62 253//62
f 253//63 13//63 11//63
f 253//63 11//63 254//63
f 254//64 11//64 10//64
f 254//64 10//64 255//64
f 255//65 10//65 15//65
f 255//65 15//65 256//65
f 256//66 15//66 14//66
f 256//66 14//66 257//66
f 257//67 14//67 41//67
f 257//67 41//67 258//67
f 258//68 41//68 42//68
f 258//68 42//68 259//68
f 259//69 42//69 35//69
f 259//69 35//69 260//69
f 260//70 35//70 34//70
f 260//70 34//70 261//70
f 261//71 34//71 46//71
f 261//71 46//71 262//71
f 262//72 46//72 47//72
f 262//72 47//72 263//72
f 263//73 47//73 48//73
f 263//73 48//73 264//73
f 264//74 48//74 50//74
f 264//74 50//74 265//74
f 265//75 50//75 52//75
f 265//75 52//75 266//75
f 266//76 52//76 203//76
f 266//77 203//77 267//77
f 202//78 49//78 206//78
f 206//78 49//78 16//78
f 8//79 2//79 268//79
f 268//80 2//80 269//80
f 268//79 270//79 8//79
f 8//81 270//81 271//81
f 8//81 271//81 9//81
f 9//82 271//82 272//82
f 9//82 272//82 33//82
f 33//83 272//83 273//83
f 33//83 273//83 32//83
f 32//84 273//84 274//84
f 32//84 274//84 12//84
f 12//85 274//85 275//85
f 12//85 275//85 86//85
f 86//86 275//86 276//86
f 86//86 276//86 37//86
f 37//87 276//87 277//87
f 37//87 277//87 39//87
f 39//88 277//88 278//88
f 39//88 278//88 56//88
f 56//89 278//89 279//89
f 56//89 279//89 57//89
f 57//90 279//90 280//90
f 57//90 280//90 59//90
f 59//91 280//91 281//91
f 59//91 281//91 60//91
f 60//92 281//92 282//92
f 60//92 282//92 65//92
f 65//93 282//93 283//93
f 65//93 283//93 66//93
f 66//94 283//94 284//94
f 66//94 284//94 68//94
f 68//95 284//95 285//95
f 68//95 285//95 69//95
f 69//96 285//96 286//96
f 69//96 286//96 89//96
f 89//97 286//97 287//97
f 89//97 287//97 90//97
f 90//98 287//98 288//98
f 90//98 288//98 98//98
f 98//99 288//99 289//99
f 98//99 289//99 99//99
f 99//100 289//100 290//100
f 99//100 290//100 82//100
f 82//101 290//101 291//101
f 82//101 291//101 80//101
f 80//102 291//102 292//102
f 80//102 292//102 78//102
f 78//103 292//103 293//103
f 78//103 293//103 92//103
f 92//104 293//104 294//104
f 92//104 294//104 64//104
f 64//105 294//105 295//105
f 64//105 295//105 63//105
f 63//106 295//106 296//106
f 63//106 296//106 72//106
f 72//107 296//107 297//107
f 72//107 297//107 70//107
f 70//108 297//108 298//108
f 70//108 298//108 28//108
f 28//109 298//109 299//109
f 28//109 299//109 26//109
f 26//110 299//110 300//110
f 26//110 300//110 24//110
f 24//111 300//111 301//111
f 24//111 301//111 22//111
f 22//112 301//112 302//112
f 22//112 302//112 20//112
f 20//113 302//113 303//113
f 20//113 303//113 29//113
f 29//114 303//114 304//114
f 29//114 304//114 30//114
f 30//115 304//115 305//115
f 30//115 305//115 31//115
f 31//116 305//116 269//116
f 269//116 1//116 31//116
f 1//80 269//80 2//80
f 306//117 307//117 203//117
f 202//118 206//118 205//118
f 205//119 206//119 306//119
f 205//120 306//120 204//120
f 204//121 306//121 203//121
